<svg width="509" height="510" viewBox="0 0 509 510" fill="none" xmlns="http://www.w3.org/2000/svg">
<path d="M110.667 45.2497C115.948 41.0627 122.618 37.7227 128.451 34.3637C164.976 13.3287 205.236 2.23772 247.249 0.145723C298.355 -1.66128 351.512 13.3517 392.471 44.3707C431.829 74.1767 458.298 116.254 465.018 165.479C471.416 211.256 459.074 257.678 430.786 294.234C409.572 321.937 376.2 344.66 341.302 349.359C361.848 336.596 378.234 321.139 390.828 300.376C394.6 293.604 397.939 286.601 400.828 279.407C417.054 238.686 415.005 191.334 397.695 151.344C375.912 101.022 332.384 62.0387 281.666 42.1037C228.228 21.0987 163.298 22.3957 110.667 45.2497Z" fill="#0F0F0F"/>
<path d="M36.8765 387.179C33.4075 382.297 30.8525 376.5 28.1715 371.159C12.8815 340.69 3.56748 307.576 0.731478 273.605C-3.64252 214.995 11.4345 153.81 50.4205 108.727C82.1755 72.0057 125.197 49.1127 173.834 45.6297C203.922 43.7157 233.958 50.0837 260.681 64.0407C295.132 82.0967 323.689 110.124 339.318 146.028C342.534 153.417 344.811 161.1 347.207 168.782C333.684 147.688 312.815 129.628 290.589 118.181C248.931 96.7267 202.286 94.1567 157.943 108.369C109.5 123.895 69.5915 160.289 46.4225 205.177C22.2475 252.698 17.8895 304.542 28.7265 356.386C30.9005 366.785 33.9185 376.983 36.8765 387.179Z" fill="#0F0F0F"/>
<path d="M161.688 343.124C180.115 366.159 201.04 384.158 228.399 396.034C270.245 414.055 317.528 414.756 359.89 397.984C408.184 378.465 446.78 340.61 467.231 292.703C491.684 235.927 490.465 176.276 467.717 119.264C468.078 119.61 468.379 119.972 468.691 120.365C474.489 127.638 479.025 137.28 483.059 145.645C503.778 188.865 511.977 237.024 506.726 284.665C501.075 338.522 473.986 392.04 431.605 426.171C396.746 454.745 351.887 468.15 307.066 463.389C259.736 458.26 216.931 433.29 187.293 396.394C175.316 380.507 166.613 362.4 161.688 343.124Z" fill="#0F0F0F"/>
<path d="M341.022 493.686C328.927 498.45 316.304 501.714 303.586 504.308C244.175 516.427 179.044 507.526 127.913 473.659C85.7833 445.753 53.7953 403.596 43.6913 353.534C34.7233 310.28 43.2203 265.235 67.3283 228.219C89.5303 194.825 124.754 167.584 164.526 159.532L166.105 159.576C164.453 161.316 161.371 162.548 159.342 163.972C156.819 165.743 154.462 167.775 152.127 169.785C133.447 185.865 118.602 203.908 108.572 226.626C90.9803 266.473 91.8413 311.584 107.464 351.835C126.797 401.641 168.864 441.464 217.402 462.739C263.049 482.746 315.817 488.203 364.252 475.776C374.747 473.084 384.647 469.214 394.715 465.273C377.712 476.675 360.141 486.311 341.022 493.686Z" fill="#0F0F0F"/>
</svg>
